<?xml version="1.0" standalone="no"?>
<!DOCTYPE svg PUBLIC "-//W3C//DTD SVG 20010904//EN"
 "http://www.w3.org/TR/2001/REC-SVG-20010904/DTD/svg10.dtd">
<svg version="1.0" xmlns="http://www.w3.org/2000/svg"
 width="300.000000pt" height="231.000000pt" viewBox="0 0 300.000000 231.000000"
 preserveAspectRatio="xMidYMid meet">
<metadata>
Created by potrace 1.10, written by Peter Selinger 2001-2011
</metadata>
<g transform="translate(0.000000,231.000000) scale(0.100000,-0.100000)"
fill="#000000" stroke="none">
<path d="M1122 2067 c-31 -7 -43 -16 -46 -31 -35 -191 -86 -306 -139 -306 -14
0 -18 5 -14 20 3 12 -1 23 -10 29 -25 14 -8 38 42 60 82 36 26 74 -77 52 -32
-6 -63 -9 -69 -5 -6 3 -36 3 -67 -1 -52 -6 -62 -12 -108 -59 -28 -29 -54 -66
-58 -82 -12 -47 -48 -124 -58 -124 -5 0 -11 7 -14 15 -10 26 -23 16 -34 -26
-8 -27 -16 -39 -25 -36 -12 5 -24 -39 -39 -154 -6 -51 18 -168 48 -227 35 -69
67 -105 137 -151 79 -53 168 -79 290 -88 55 -3 99 -9 99 -13 0 -10 -52 -20
-101 -20 -114 0 -281 -70 -349 -147 -44 -51 -80 -112 -80 -138 0 -27 15 -16
39 31 117 220 461 291 792 163 77 -30 81 -30 100 -13 19 17 22 16 89 -18 38
-20 71 -31 72 -26 3 7 24 6 61 -2 32 -6 72 -8 90 -5 84 19 171 94 165 143 -3
24 -9 28 -59 37 -53 9 -89 28 -89 45 0 4 37 8 83 8 55 0 103 7 140 20 l57 19
26 -26 c91 -91 61 -227 -65 -294 -29 -16 -51 -30 -49 -32 2 -2 40 1 84 6 105
11 194 39 268 84 56 33 60 34 77 19 28 -26 112 -30 159 -9 22 10 40 24 40 32
0 18 -88 73 -116 73 -13 0 -32 -14 -49 -35 -15 -20 -34 -35 -43 -34 -10 1 -30
-3 -47 -10 -16 -7 -46 -15 -65 -19 l-34 -5 65 60 c107 101 139 199 104 319
-15 51 -27 69 -90 130 -47 46 -75 81 -79 102 -6 23 -14 32 -37 37 -22 5 -29
12 -29 31 0 36 -25 91 -47 102 -24 13 -71 -6 -141 -59 -37 -29 -60 -39 -75
-35 -12 2 -31 -2 -41 -10 -11 -8 -29 -14 -40 -14 -19 0 -121 -33 -168 -54 -14
-6 -18 -3 -18 12 0 12 14 28 35 41 68 40 68 125 1 176 -31 24 -33 29 -26 61
12 53 30 94 62 142 l29 42 -53 57 c-111 118 -337 181 -506 140z m251 -30 c27
-7 47 -16 47 -22 -1 -5 -22 -52 -47 -103 -40 -82 -48 -93 -67 -88 -11 4 -53
11 -91 17 l-71 11 23 66 c12 37 23 79 23 93 0 14 3 29 7 32 10 11 123 6 176
-6z m-228 -49 c-10 -50 -37 -118 -46 -118 -12 0 -11 21 2 78 16 70 17 72 34
72 13 0 15 -7 10 -32z m364 -17 c60 -31 69 -47 47 -85 -10 -17 -32 -57 -48
-88 -16 -32 -31 -58 -33 -58 -3 0 -27 16 -55 36 -55 39 -55 35 -4 136 26 53
43 78 51 78 2 0 21 -9 42 -19z m131 -86 c9 -11 8 -20 -10 -44 -11 -17 -33 -58
-48 -91 -26 -56 -29 -59 -47 -46 -18 13 -18 15 -2 57 21 53 74 139 86 139 5 0
14 -7 21 -15z m-690 -14 c0 -5 -18 -18 -40 -29 -38 -18 -40 -19 -56 -1 -15 17
-14 18 17 28 44 12 79 13 79 2z m-104 -55 c48 -48 55 -66 24 -66 -10 0 -30 -5
-44 -11 -20 -10 -33 -8 -70 11 -25 12 -46 26 -46 31 0 5 -4 9 -10 9 -6 0 -7
-18 -3 -45 4 -33 1 -51 -11 -71 -10 -14 -15 -29 -11 -32 12 -12 45 39 45 70 0
16 3 28 8 26 51 -25 62 -34 62 -49 0 -15 4 -16 30 -6 19 7 38 8 56 2 36 -13
43 -35 12 -35 -13 0 -50 -13 -83 -29 -33 -16 -73 -33 -90 -37 -29 -7 -45 -20
-45 -37 0 -5 10 -1 22 7 12 9 31 16 41 16 10 0 40 11 67 25 75 38 83 35 59
-22 -11 -26 -25 -80 -31 -121 -12 -74 -12 -74 -40 -68 -23 5 -28 2 -28 -15 0
-30 26 -74 57 -98 21 -15 24 -20 11 -21 -26 0 -79 51 -99 95 -19 44 -28 129
-15 157 6 14 0 19 -35 28 -47 13 -134 54 -143 68 -7 11 11 38 20 29 4 -3 17
22 28 57 25 75 69 141 105 161 14 8 45 14 69 15 38 0 49 -5 88 -44z m336 0
c73 -8 209 -50 240 -76 31 -26 21 -25 -48 6 -55 24 -59 25 -71 8 -7 -10 -13
-21 -13 -24 0 -4 33 -10 73 -13 78 -7 177 -33 177 -46 0 -5 -21 -3 -47 5 -28
8 -136 19 -258 25 -115 6 -221 14 -235 19 -21 7 -18 9 20 9 35 1 48 6 65 28
20 24 27 26 101 25 67 0 73 1 39 8 -22 5 -75 9 -117 9 -43 1 -78 5 -78 10 0
11 43 19 75 15 11 -2 46 -5 77 -8z m-67 -155 c68 -7 69 -7 43 -21 -16 -7 -28
-19 -28 -27 0 -10 5 -11 19 -3 34 18 59 11 85 -22 23 -29 26 -30 26 -12 0 12
-9 33 -21 48 l-20 26 24 0 c49 0 176 -29 215 -49 41 -21 72 -55 72 -78 0 -7
-16 -15 -35 -19 -34 -6 -63 -29 -52 -40 3 -3 21 0 41 7 31 11 38 11 56 -6 28
-25 25 -51 -9 -86 -21 -21 -39 -29 -65 -29 -37 0 -57 -17 -36 -30 9 -6 -4 -25
-44 -66 -52 -53 -136 -176 -136 -200 -1 -29 -17 -35 -54 -18 -58 28 -34 65 27
39 12 -5 17 -3 17 9 0 8 -12 19 -26 22 l-26 7 29 23 c31 26 22 31 -17 9 -33
-19 -135 -19 -192 0 -43 15 -108 67 -108 86 0 5 11 9 24 9 12 0 37 5 55 11 26
9 40 8 69 -4 91 -38 161 -27 217 34 43 48 47 73 9 59 -58 -22 -122 -6 -145 37
-13 24 -66 59 -75 50 -3 -3 20 -31 51 -63 54 -57 58 -59 103 -57 l47 2 -27
-24 c-39 -33 -107 -42 -163 -21 -24 10 -49 23 -55 31 -10 12 -16 11 -43 -6
-55 -33 -141 -17 -167 30 -15 29 -13 31 21 31 34 0 92 24 110 46 20 24 3 26
-37 4 l-39 -20 -3 22 c-9 56 43 228 69 228 7 0 20 -7 30 -16 11 -10 19 -12 24
-5 3 6 -5 22 -19 34 -34 31 -22 40 39 32 28 -4 82 -11 120 -14z m405 -22 c88
-28 131 -79 111 -132 -24 -63 -84 -46 -74 21 3 19 0 39 -8 49 -21 25 -108 62
-162 69 -26 4 -49 10 -52 13 -5 10 142 -7 185 -20z m-888 -116 c58 -16 66 -25
49 -52 -12 -19 -78 -8 -140 23 -61 31 -69 43 -64 88 l5 38 46 -41 c31 -27 65
-45 104 -56z m1436 -5 c6 -13 14 -33 17 -45 6 -22 4 -23 -62 -24 -111 -2 -131
-14 -33 -22 154 -11 188 -35 157 -110 -17 -38 -51 -65 -62 -47 -4 7 -19 4 -42
-10 -34 -20 -36 -20 -49 -3 -7 10 -14 21 -14 25 0 4 -13 15 -30 24 -18 11 -32
30 -36 48 -4 17 -14 46 -22 64 -18 37 -17 37 78 94 55 34 83 35 98 6z m-1551
-55 c25 -14 69 -32 97 -38 49 -11 51 -13 65 -60 9 -27 33 -68 57 -94 37 -41
46 -46 83 -45 36 1 44 -2 56 -26 8 -15 30 -39 49 -54 32 -24 34 -29 25 -54
-16 -43 -32 -50 -98 -41 -125 17 -225 73 -281 156 -33 50 -60 129 -60 174 0
15 -11 41 -25 57 -23 28 -32 52 -19 52 3 0 26 -12 51 -27z m1330 -30 c2 -6
-12 -14 -31 -17 -47 -9 -81 -38 -72 -61 6 -17 9 -16 34 7 38 36 72 52 84 40 6
-6 1 -19 -16 -35 -29 -29 -42 -69 -31 -94 6 -15 9 -14 15 8 11 37 29 69 40 69
13 0 13 -36 0 -61 -13 -23 -4 -41 55 -119 23 -30 45 -63 49 -73 7 -21 -18 -51
-52 -62 -22 -6 -23 -5 -16 17 7 24 8 32 6 61 -3 33 -22 17 -22 -19 0 -67 -10
-74 -105 -74 -46 0 -86 4 -90 9 -3 5 0 21 6 35 10 22 8 31 -14 64 -15 21 -27
43 -27 49 0 10 -38 29 -70 35 -23 4 -97 -29 -103 -46 -3 -8 -3 -30 0 -50 4
-24 -1 -47 -18 -80 -23 -46 -23 -47 -4 -79 24 -41 44 -56 75 -57 59 0 140 45
140 79 0 11 -4 9 -16 -7 -11 -15 -25 -22 -50 -22 -27 0 -34 -4 -34 -20 0 -13
-7 -20 -20 -20 -17 0 -19 5 -14 25 4 15 2 25 -5 25 -6 0 -11 -9 -11 -20 0 -12
-7 -20 -16 -20 -12 0 -15 6 -10 25 6 22 3 25 -19 25 -30 0 -35 29 -5 37 13 4
23 19 31 47 5 22 12 49 15 59 3 10 -1 20 -10 23 -9 3 -16 13 -16 21 0 11 7 13
30 8 26 -6 30 -4 30 14 0 13 6 21 16 21 12 0 15 -7 12 -25 -4 -17 -1 -25 8
-25 8 0 14 9 14 21 0 12 5 19 13 16 6 -2 12 -13 12 -25 0 -12 10 -29 23 -37
25 -18 30 -63 7 -71 -12 -5 -13 -10 -4 -20 6 -8 15 -11 20 -8 5 3 9 -7 9 -21
0 -36 39 -71 89 -80 59 -10 63 -30 13 -77 -41 -37 -42 -38 -119 -38 -119 1
-198 44 -246 135 -31 59 -28 173 6 249 54 117 157 194 319 235 78 20 90 21 95
4z m-1371 -79 c15 -92 43 -152 95 -209 79 -85 190 -132 323 -136 55 -2 76 -7
76 -16 0 -18 -138 -17 -207 1 -178 48 -299 178 -323 347 -16 112 17 123 36 13z
m991 -74 c-115 -126 -129 -299 -33 -408 l31 -35 -39 7 c-29 6 -42 3 -56 -9
-17 -15 -21 -15 -61 6 -24 12 -66 29 -93 39 -28 9 -58 27 -68 41 -20 27 -69
141 -63 147 2 3 32 -14 66 -37 34 -22 69 -41 78 -41 9 0 26 21 40 51 39 83
196 279 223 279 6 0 -6 -18 -25 -40z m781 -15 c62 -68 87 -134 79 -215 -2 -31
-12 -70 -20 -86 -20 -37 -81 -104 -96 -104 -21 0 -11 23 28 65 69 75 77 169
24 268 -15 27 -42 62 -60 76 -18 14 -33 32 -33 39 0 26 30 10 78 -43z m-288
-11 c33 -30 45 -35 68 -30 15 4 45 10 67 15 23 4 46 10 52 14 6 4 28 -12 51
-38 44 -50 69 -125 58 -177 -7 -35 -43 -98 -56 -98 -5 0 -18 20 -29 45 -39 87
-99 141 -146 129 -20 -5 -27 -1 -34 19 -5 14 -23 40 -39 58 -37 43 -55 77 -47
89 9 14 11 13 55 -26z m-945 -178 c-17 -25 -16 -26 19 -43 44 -21 46 -37 6
-53 -28 -12 -29 -14 -15 -30 19 -21 19 -30 1 -30 -8 0 -22 10 -30 22 -15 20
-14 24 7 46 13 15 18 26 11 29 -6 2 -19 10 -29 17 -15 11 -16 16 -5 37 7 13
20 32 29 43 14 15 16 16 19 3 2 -9 -4 -27 -13 -41z m1074 -31 c39 -45 64 -103
56 -133 -3 -13 -1 -30 6 -38 17 -20 3 -44 -26 -44 -23 0 -25 3 -25 45 0 57
-22 111 -63 153 -26 27 -29 34 -17 42 25 16 37 12 69 -25z m355 -211 c22 -9
10 -24 -20 -24 -23 0 -31 10 -17 23 8 9 17 9 37 1z m-284 -53 c0 -10 -54 -31
-82 -31 -16 0 -17 3 -8 20 8 15 21 20 50 20 22 0 40 -4 40 -9z"/>
<path d="M757 1833 c-3 -5 9 -25 28 -43 42 -41 46 -28 7 20 -16 19 -31 29 -35
23z"/>
<path d="M1418 1583 c-10 -2 -18 -11 -18 -19 0 -17 2 -17 35 -2 42 19 31 34
-17 21z"/>
<path d="M917 1555 c-8 -18 11 -31 25 -17 11 11 3 32 -12 32 -4 0 -10 -7 -13
-15z"/>
<path d="M1144 1549 c-8 -14 11 -33 25 -25 11 7 4 36 -9 36 -5 0 -12 -5 -16
-11z"/>
<path d="M1453 1547 c-13 -5 -23 -14 -23 -18 0 -17 17 -17 39 0 28 21 16 33
-16 18z"/>
<path d="M966 1475 c-19 -29 -20 -47 -4 -63 15 -15 64 -16 73 -2 4 6 -7 10
-24 10 -26 0 -31 4 -31 24 0 14 5 28 10 31 6 3 10 10 10 16 0 17 -18 9 -34
-16z"/>
<path d="M1951 1353 c0 -9 111 -64 117 -58 6 5 -69 52 -95 60 -13 3 -23 3 -22
-2z"/>
<path d="M1568 1096 c-4 -19 0 -25 16 -28 46 -9 65 21 27 42 -29 15 -38 12
-43 -14z"/>
<path d="M1548 1016 c-4 -19 0 -26 18 -30 47 -12 75 22 35 44 -31 16 -48 12
-53 -14z"/>
<path d="M1680 910 c-8 -5 -26 -10 -40 -10 -21 -1 -23 -2 -8 -11 22 -12 68 -1
68 17 0 16 -1 17 -20 4z"/>
<path d="M1544 872 c10 -16 66 -26 79 -13 8 8 4 11 -13 11 -14 0 -36 3 -49 7
-16 4 -22 3 -17 -5z"/>
<path d="M1707 843 c-20 -2 -35 -8 -32 -14 9 -14 49 -11 71 6 10 8 15 14 9 13
-5 -1 -27 -3 -48 -5z"/>
<path d="M1864 809 c-31 -34 -92 -60 -145 -62 -57 -2 -64 -13 -15 -23 61 -11
146 27 172 77 17 34 14 37 -12 8z"/>
<path d="M2551 733 c-6 -21 -11 -61 -11 -90 0 -49 -2 -53 -47 -92 -59 -50
-166 -105 -258 -132 -109 -32 -285 -36 -408 -11 -177 37 -327 129 -389 239
-17 30 -32 52 -35 50 -2 -3 8 -30 21 -62 34 -76 139 -179 226 -222 105 -51
179 -66 320 -66 224 0 385 55 539 184 l62 51 62 -12 c34 -6 78 -20 99 -31 45
-23 62 -24 82 -3 25 25 19 49 -28 100 -30 34 -70 62 -128 92 -47 23 -88 42
-91 42 -3 0 -11 -17 -16 -37z m86 -25 c64 -28 127 -73 154 -111 46 -63 23 -63
-46 2 -41 38 -83 66 -116 79 -55 20 -76 42 -40 42 11 0 33 -6 48 -12z m-3 -79
c16 -15 0 -20 -28 -10 -32 13 -36 35 -3 26 12 -4 26 -11 31 -16z"/>
<path d="M1835 713 c-22 -8 -50 -12 -62 -10 -13 2 -23 0 -23 -6 0 -16 109 -2
128 16 19 20 11 20 -43 0z"/>
<path d="M215 650 c-48 -53 60 -160 217 -216 46 -16 49 -12 55 70 7 86 -3 102
-71 110 -31 3 -81 17 -112 31 -68 30 -66 30 -89 5z m72 -78 c40 -40 75 -64
112 -78 55 -21 79 -44 44 -44 -56 0 -213 112 -226 160 -8 32 8 23 70 -38z
m150 -14 c7 -6 13 -14 13 -19 0 -17 -35 -9 -75 17 l-40 25 45 -6 c24 -3 50
-11 57 -17z"/>
<path d="M1111 560 c-28 -24 -49 -25 -73 -3 -17 15 -21 15 -61 -7 -62 -35
-182 -116 -222 -151 l-35 -31 -43 21 c-24 11 -64 24 -89 27 -42 6 -49 4 -74
-21 l-27 -27 24 -20 c13 -10 42 -28 63 -40 l40 -20 34 37 c21 23 39 34 49 31
19 -8 73 23 217 122 97 67 110 73 121 59 15 -21 35 -21 80 0 36 17 36 17 61
-10 29 -31 103 -71 153 -82 44 -9 131 -8 161 3 18 7 6 10 -57 16 -99 8 -180
35 -244 81 -27 19 -50 35 -52 35 -1 -1 -13 -10 -26 -20z"/>
</g>
</svg>
